# Rhino

o object_1
v 0 68 50
v 0 68 -50
v 58.88972854614258 -34 50
v 58.88972854614258 -34 -50
v 58.88972854614258 -34 50
v 58.88972854614258 -34 -50
v -58.88972854614258 -34 50
v -58.88972854614258 -34 -50
v -58.88972854614258 -34 50
v -58.88972854614258 -34 -50
v 0 68 50
v 0 68 -50
v 0 68 50
v 58.88972854614258 -34 50
v -58.88972854614258 -34 50
v 0 68 -50
v 58.88972854614258 -34 -50
v -58.88972854614258 -34 -50
vt 0 0
vt 0 0.6644732356071472
vt 0.3333333432674408 0
vt 0.3333333432674408 0.6644732356071472
vt 0.3333333432674408 0
vt 0.3333333432674408 0.6644732356071472
vt 0.6666666865348816 0
vt 0.6666666865348816 0.6644732356071472
vt 0.6666666865348816 0
vt 0.6666666865348816 0.6644732356071472
vt 1 0
vt 1 0.6644732356071472
vt 0.1666666716337204 0.6644738912582398
vt 0 1
vt 0.3333333432674408 1
vt 0.1666666716337204 1
vt 0 0.6644738912582398
vt 0.3333333432674408 0.6644738912582398
vn 0.8660253882408142 0.5 0
vn 0.8660253882408142 0.5 0
vn 0.8660253882408142 0.5 0
vn 0.8660253882408142 0.5 0
vn -3.61969445023097e-16 -1 0
vn -3.61969445023097e-16 -1 0
vn -3.61969445023097e-16 -1 0
vn -3.61969445023097e-16 -1 0
vn -0.8660253882408142 0.5 0
vn -0.8660253882408142 0.5 0
vn -0.8660253882408142 0.5 0
vn -0.8660253882408142 0.5 0
vn 0 0 1
vn 0 0 1
vn 0 0 1
vn 0 0 -1
vn 0 0 -1
vn 0 0 -1
f 1/1/1 3/3/3 4/4/4 2/2/2
f 5/5/5 7/7/7 8/8/8 6/6/6
f 9/9/9 11/11/11 12/12/12 10/10/10
f 13/13/13 15/15/15 14/14/14
f 16/16/16 17/17/17 18/18/18
